<svg version="1.1" xmlns="http://www.w3.org/2000/svg" width="660" height="83" viewBox="0 0 660.32421875 83.00390625">
  <!-- svg-source:excalidraw -->
  <defs>
    <style>
      @font-face {
        font-family: "Virgil";
        src: url("https://excalidraw.com/FG_Virgil.woff2");
      }
      @font-face {
        font-family: "Cascadia";
        src: url("https://excalidraw.com/Cascadia.woff2");
      }
    </style>
  </defs>
  <g transform="translate(10 12.66796875) rotate(0 85.1015625 25.9609375)"><path d="M-1.0023909993469715 1.584070522338152 C37.128225310196285 1.4203179050280594, 74.83731375719071 -1.8357232641385055, 171.75707886740565 -1.092866461724043 M0.19681034423410892 0.2321265246719122 C37.088287681058866 0.8547818991358509, 71.45716102923616 0.11956796376063727, 169.9307810459286 -0.3150069806724787 M168.96638844534755 1.489770371466875 C171.16509882878307 17.19363437627617, 170.762934965601 33.46581579441554, 171.35425720736384 50.22465666010976 M169.91193405725062 -0.07799745537340641 C170.96734033668153 20.47111237894569, 170.10900358998887 39.35956814527162, 170.0387670788914 52.20066516660154 M168.25866566225886 50.92518289759755 C128.66602786085278 51.81367125810619, 87.56763368127285 52.708196190013844, 1.4027409367263317 51.62963171675801 M169.77271244861186 51.47760694287717 C110.30934735732444 51.72329658396513, 48.500258160202065 52.84376883633406, -0.12598820589482784 52.345188250765204 M-0.6413064189255238 51.41972704604268 C0.8974304070530343 36.28726231514302, 0.32455884123424766 24.90499976319843, 1.6797517351806164 -0.7039910964667797 M0.11221436597406864 52.6215349342674 C-0.6023164902601275 31.199933722915006, 0.47595793858432445 12.735720435756953, -0.48627533577382565 -0.9967331383377314" stroke="#000000" stroke-width="2" fill="none"></path></g><g transform="translate(246.02734375 10.44921875) rotate(0 85.1015625 25.9609375)"><path d="M-0.9657912440598011 0.2908579893410206 C40.3587666920881 2.2590273678439554, 79.00557117974968 1.9254601061480936, 170.87788043543696 -0.8803760223090649 M-0.17785187624394894 0.912081828340888 C44.79319553728856 -1.073797986311547, 91.82971269264236 -0.15089462737523718, 170.11835751868784 0.18890958093106747 M169.09509406611323 -1.761209648102522 C170.76456523786095 19.581657533787077, 168.73735178361443 39.97367708994425, 168.43203280493617 51.53052707388997 M170.82041201926768 -0.9382929299026728 C170.2840561924383 18.27560387195845, 170.468011086981 36.769093187857656, 169.4432605896145 52.50692128203809 M168.40586875006557 52.56543441489339 C107.30871744290634 54.75000691541034, 40.70739667163579 51.641468645413696, -1.444711584597826 50.24897487834096 M169.96890822984278 52.044162740930915 C124.87450260930054 52.03690953628131, 78.08104036339208 52.65912701264926, -0.5019531454890966 52.141589095816016 M-1.0140580125153065 50.32755287364125 C0.11330918337422191 37.10329458017659, -2.358293614134018 23.7272609266045, 1.1850251965224743 -1.6487386636435986 M0.17687747813761234 51.9746221806854 C-0.06815521181299111 32.59615067282866, 0.5271423035793124 12.119219921197505, -0.37640233896672726 0.6826957371085882" stroke="#000000" stroke-width="2" fill="none"></path></g><g transform="translate(480.12109375 10) rotate(0 85.1015625 25.9609375)"><path d="M-1.61861078068614 0.039005499333143234 C66.18234573546506 -0.8378762078561703, 134.14744486025884 0.5880696701726993, 169.4882733412087 1.3955784849822521 M-0.3136294577270746 0.792446056380868 C67.9814361259836 -0.39633421387086853, 135.91461473154487 -1.2999514171064948, 169.97602521441877 -0.3337497916072607 M169.51689406111836 -1.0536507554352283 C169.75979454400687 13.57047980183561, 170.294635485436 28.18934226218262, 172.20088465884328 53.77836702391505 M169.45146857760847 0.7928347382694483 C170.6680169011632 12.370041862476501, 169.46726303353702 25.050499490223594, 169.73232465051115 51.91820482350886 M171.54856665804982 53.7361507229507 C105.80113017261318 51.45605249368557, 39.313783561444126 50.55015785657772, -0.7185345105826855 51.54251466318965 M169.7252393271774 51.902562180534005 C119.76807776963977 49.58236974795844, 69.04753997614024 49.95374262650992, -0.24348689056932926 52.566180327907205 M-1.8926115445792675 53.67000661417842 C0.4055872725628432 39.85005719216715, 0.5560822056912001 28.64373615760705, -1.1819714717566967 1.0550868324935436 M-0.867378244176507 52.70665035583079 C-0.03905247891118052 41.46533787830558, 0.6391952708942699 30.527593287132913, 0.7731389310210943 0.18933931924402714" stroke="#000000" stroke-width="2" fill="none"></path></g><g><g transform="translate(93.55859375 66.08203125) rotate(0 -0.2592346581742504 -27.90571379566103)"><path d="M0.8660653956234456 0.24271213933825497 C0.5988956895967326 -9.014500809460879, -1.2040913534661133 -45.035389829427004, -1.397009503096342 -54.495723963528874 M-0.1383890010137112 -0.6754679328482598 C-0.045308935266609104 -9.725947587816046, 1.00281759826156 -46.883380982903766, 0.8727259816508739 -56.054139730660246" stroke="#000000" stroke-width="2" fill="none"></path></g></g><g><g transform="translate(327.2109375 63.9140625) rotate(0 0.09312701388205369 -26.42577837058809)"><path d="M1.0077881701290605 -1.0572397001087666 C1.1141464995841184 -9.939787325014672, 0.4232128826280434 -45.21828641171257, 0.3363422997295856 -53.85366225317121 M0.07773823010735215 1.0021055119950324 C0.01594659683915478 -7.7172927271605785, -0.7480532073198508 -44.09371428651424, -0.8309242377895862 -52.8566948411148" stroke="#000000" stroke-width="2" fill="none"></path></g></g><g><g transform="translate(143.25390625 38.9140625) rotate(0 52.6975795844896 0.747615633764724)"><path d="M1.0296955101191998 0.4319689638912678 C18.550165310750405 0.719298566132784, 88.08636577849586 1.810410440713167, 105.28401224538683 1.8925970681011675 M0.11114692359231415 -0.38685127540491515 C17.492203408867745 -0.4496672119107097, 87.36989558387859 -0.2323539303150028, 104.53224117933773 0.1914678113255649" stroke="#000000" stroke-width="2" fill="none"></path></g><g transform="translate(143.25390625 38.9140625) rotate(0 52.6975795844896 0.747615633764724)"><path d="M76.93971872905298 10.734440245837035 C86.41781021439587 5.601551468953932, 93.679352914632 4.833878716728441, 104.86057060464286 0.981156715163961 M75.3557718435119 10.034328292295399 C83.60991894476476 7.9734466442763985, 90.21550973635446 4.487403671949035, 103.65387456930243 0.5568347973469644" stroke="#000000" stroke-width="2" fill="none"></path></g><g transform="translate(143.25390625 38.9140625) rotate(0 52.6975795844896 0.747615633764724)"><path d="M77.1872032030644 -9.785275975908398 C86.61655846801919 -8.484489299301053, 93.80053141987622 -2.8206102118003757, 104.86057060464286 0.981156715163961 M75.60325631752332 -10.485387929450035 C83.84682105967221 -7.341374872275193, 90.38963645934653 -5.622512636071525, 103.65387456930243 0.5568347973469644" stroke="#000000" stroke-width="2" fill="none"></path></g></g><g><g transform="translate(369.45703125 40.5234375) rotate(0 55.24054439745379 0.05784615532360249)"><path d="M-0.5669347532093525 0.6925278313457965 C17.571184125790992 0.6412158357208606, 90.23385935549933 1.0863482023803575, 108.64532189294695 0.8067731147144059 M1.336285772016272 0.01050099746324129 C19.890887961179637 0.1550538810292271, 93.02297758568388 -0.7675625596819389, 111.0480235481169 -0.7816301766805283" stroke="#000000" stroke-width="2" fill="none"></path></g><g transform="translate(369.45703125 40.5234375) rotate(0 55.24054439745379 0.05784615532360249)"><path d="M84.08681307927961 8.701936437861658 C92.5361229625826 7.9493051047154, 97.55491314092612 4.055623009834219, 112.9513991551008 1.06229454315976 M83.3674363941818 9.66997008130107 C91.15750819073715 6.465356739397231, 100.63223447489298 2.4157600224311837, 110.08691347218118 -0.5261056698881021" stroke="#000000" stroke-width="2" fill="none"></path></g><g transform="translate(369.45703125 40.5234375) rotate(0 55.24054439745379 0.05784615532360249)"><path d="M83.9375934662 -11.818729630590209 C92.61999926456002 -6.728065602535301, 97.68127486091717 -4.779157317752942, 112.9513991551008 1.06229454315976 M83.21821678110219 -10.850695987150797 C91.0228166620277 -7.80796422959769, 100.54298144803745 -5.608862776453478, 110.08691347218118 -0.5261056698881021" stroke="#000000" stroke-width="2" fill="none"></path></g></g><g transform="translate(547.72265625 23.9609375) rotate(0 17.5 12)"><text x="17.5" y="19" font-family="Cascadia, Segoe UI Emoji" font-size="20px" fill="#000000" text-anchor="middle" style="white-space: pre;" direction="ltr">Nil</text></g><g transform="translate(279.50390625 25.00390625) rotate(0 6 24)"><text x="0" y="19" font-family="Cascadia, Segoe UI Emoji" font-size="20px" fill="#000000" text-anchor="start" style="white-space: pre;" direction="ltr">3</text><text x="0" y="43" font-family="Cascadia, Segoe UI Emoji" font-size="20px" fill="#000000" text-anchor="start" style="white-space: pre;" direction="ltr"></text></g><g transform="translate(46.2421875 27.0703125) rotate(0 6 12)"><text x="0" y="19" font-family="Cascadia, Segoe UI Emoji" font-size="20px" fill="#000000" text-anchor="start" style="white-space: pre;" direction="ltr">5</text></g></svg>